# xmcd
#
# Track frame offsets: 
#        150
#        68636
#        135140
#
# Disc length: 2647 seconds
#
# Revision: 4
# Processed by: cddbd v1.5.1PL0 Copyright (c) Steve Scherf et al.
# Submitted via: ExactAudioCopy v0.95a5
#
DISCID=1b0a5503
DTITLE=齐豫 - 因此而更美丽
DYEAR=2004
DGENRE=New Age
TTITLE0=忏悔文
TTITLE1=大吉祥天女咒
TTITLE2=般若波罗蜜多心经
EXTD=YEAR: 2004
EXTT0=
EXTT1=
EXTT2=
PLAYORDER=
